<svg width="205" height="44" viewBox="0 0 205 44" fill="none" xmlns="http://www.w3.org/2000/svg">
<g clip-path="url(#clip0)">
<path fill-rule="evenodd" clip-rule="evenodd" d="M41.7556 34.8826C43.9937 27.9462 46.1174 23.3745 48.4107 16.7367C49.2124 14.4309 49.9015 13.1134 49.6547 11.8247C49.2515 9.71679 47.8284 9.10992 46.4101 10.9604C46.1845 11.255 45.9729 11.5757 45.7822 11.8838C44.8937 13.3194 44.1578 14.7593 43.2001 16.4144C40.2586 21.498 37.9898 28.118 36.5021 30.384C34.4586 33.4964 31.6731 32.9054 30.8084 29.774C28.5513 31.374 25.8084 29.6612 25.9016 26.7525C25.9825 24.2356 26.666 20.9668 27.0265 18.3892C27.475 15.1824 28.3604 7.08053 28.2904 2.65538C28.2824 2.14286 28.2323 1.69712 28.1028 1.33247C27.5742 -0.16027 26.0291 -0.374232 24.7272 0.523147C23.9535 1.05632 23.3765 2.13787 23.0153 3.496C22.4665 5.55888 22.2454 7.74677 21.983 9.93164C21.8109 11.3631 19.3591 24.4008 18.798 25.5022C17.0048 29.0213 10.7875 23.0451 6.15087 21.7365C1.09096 20.3084 -2.10992 22.8851 1.64481 25.1186C4.2101 26.6444 12.5471 33.104 14.6334 35.2936C15.1329 35.8178 15.2651 35.8552 15.7524 36.321C16.4865 37.0225 16.9843 37.6987 17.7347 38.3743C22.4246 42.5957 30.6706 44.5596 36.8527 41.4041C38.106 40.7644 38.4436 40.4728 39.3305 39.5672C40.7999 38.0673 41.1463 36.7707 41.7556 34.8826Z" fill="white"/>
<path fill-rule="evenodd" clip-rule="evenodd" d="M130.188 24.9934L132.232 15.1796C135.198 15.1122 140.106 14.3457 137.943 20.7437C136.396 25.3184 133.464 25.0288 130.188 24.9934ZM119.472 42.9288L126.237 42.9373L129.021 30.1952C132.737 29.7366 132.84 32.2794 133.392 35.0522L134.909 42.9412L141.74 42.9223L140.078 34.8493C139.674 32.8882 138.805 31.2461 138.06 30.494C137.61 30.0404 137.181 29.7779 136.657 29.4174C137.744 28.751 138.59 28.4618 139.456 27.9588C140.858 27.1454 142.16 26.0314 143.475 23.7913C145.073 21.0698 145.882 16.856 144.262 13.7179C142.635 10.5657 140.048 9.90769 135.356 9.91009C131.101 9.91226 126.842 9.8879 122.589 9.91596L121.562 15.1315L125.232 15.1587L119.472 42.9288Z" fill="white"/>
<path fill-rule="evenodd" clip-rule="evenodd" d="M182.903 42.9465L188.855 42.9363L190.97 33.6954C193.544 33.4715 193.809 34.8089 194.345 37.4863L195.44 42.9463L201.664 42.8869L200.8 38.714C199.868 34.7866 200.264 34.0973 197.874 31.6084L204.995 21.5009L198.566 21.5437C196.961 23.6864 195.57 26.3163 194.129 28.5023L192.135 28.5275C192.013 26.6825 195.427 13.5884 195.938 9.91016L186.023 9.91885L185.08 15.1583L188.649 15.1627C188.055 19.5622 182.931 40.6925 182.903 42.9465Z" fill="white"/>
<path fill-rule="evenodd" clip-rule="evenodd" d="M50.4526 42.9515L67.6804 42.8908L68.9578 37.4263L69.499 34.3278L63.895 34.3295L63.1715 37.6857L58.6902 37.6898L64.5372 9.90625L53.7922 10.0123L52.5078 15.157L56.4505 15.1509L50.4526 42.9515Z" fill="white"/>
<path fill-rule="evenodd" clip-rule="evenodd" d="M149.892 36.3564C149.525 35.0015 149.743 33.521 150.257 31.5351C150.8 29.4379 152.408 25.8981 155.107 26.7533C157.196 27.415 157.329 33.5534 155.102 36.7915C153.382 39.2919 150.794 39.6935 149.892 36.3564ZM148.011 43.4557C148.532 43.6529 149.163 43.8151 149.993 43.8986C155.482 44.4513 158.604 41.6431 160.279 39.4809C161.828 37.4823 162.072 36.7593 162.707 34.3729C163.585 31.0709 164.128 27.3119 162.023 24.5335C159.777 21.5706 155.27 20.5747 150.972 22.3506C147.616 23.7374 145.157 26.5363 143.913 30.3689C143.281 32.3157 142.89 34.6345 143.1 36.8076C143.405 39.9675 144.965 42.3026 148.011 43.4557Z" fill="white"/>
<path fill-rule="evenodd" clip-rule="evenodd" d="M77.9766 32.0841C78.2909 29.7816 79.4196 27.2141 81.5601 26.7762C83.2881 26.423 83.817 27.6188 83.5757 29.0667C83.4697 29.704 83.133 30.317 82.5703 30.8645C81.5309 31.8756 79.9253 32.1644 77.9766 32.0841ZM71.6302 39.7159C71.877 40.3452 72.1618 40.8151 72.9683 41.6935C77.0125 46.0974 83.6656 43.0562 86.7881 41.9906L85.7891 37.5169C82.9839 38.4735 78.8799 40.4835 77.7713 36.3416C82.3861 36.6869 86.4782 35.2788 88.7428 31.3366C94.4443 21.4114 80.2326 17.8878 74.1609 25.8055C72.0244 28.5914 70.9178 31.506 70.876 35.3264C70.8564 37.1412 70.9684 38.0273 71.6302 39.7159Z" fill="white"/>
<path fill-rule="evenodd" clip-rule="evenodd" d="M105.2 25.7987C104.602 27.0213 103.983 28.6941 104.516 30.6722C105.463 34.1912 110.645 34.709 111.277 36.2978C112.477 39.3133 106.888 39.6719 103.681 37.1904L102.917 38.3496C102.742 38.7593 102.638 39.0761 102.463 39.4997C102.152 40.2509 101.857 40.9991 101.51 41.638C103.184 43.7328 108.313 44.3199 111.562 43.6345C115.48 42.8078 117.734 39.6888 117.91 35.8632C117.99 34.1264 117.62 33.2258 116.056 31.8548C114.678 30.6474 113.084 30.311 111.847 29.496C111.139 29.0298 110.953 28.9079 111.016 28.0694C111.132 26.5271 112.363 26.5932 114.276 26.653L113.87 28.9426L118.237 28.9205L121.107 20.2559L115.721 20.3013L115.473 21.5959C112.776 21.4616 109.753 21.485 107.527 23.0313C106.225 23.9363 105.888 24.3914 105.2 25.7987Z" fill="white"/>
<path fill-rule="evenodd" clip-rule="evenodd" d="M167.347 42.1938C167.954 42.716 168.808 43.2088 170.069 43.5862C171.479 44.0085 173.162 44.0444 174.705 43.8474C175.745 43.7145 176.504 43.5184 177.18 43.3377C178.021 43.1129 178.715 42.8496 179.586 42.4906C179.929 42.3492 180.3 42.1929 180.718 42.0181L179.696 37.5679C177.729 38.1635 170.809 41.6684 171.546 33.7507C171.97 29.1994 173.436 26.1783 178.531 26.7758L178.157 28.9468L182.506 28.8998L185.386 20.2639L180.082 20.2617L179.672 21.7588C173.587 21.1841 170.304 22.8358 167.688 26.2611C165.601 28.9922 164.639 32.9581 164.944 36.9434C165.094 38.9134 165.78 40.8465 167.347 42.1938Z" fill="white"/>
<path fill-rule="evenodd" clip-rule="evenodd" d="M90.6135 42.952L96.5304 42.9633L100.004 26.6141L103.287 26.6365L104.973 21.5849L101.143 21.5897L102.446 15.1593L97.2046 15.1582L95.2208 21.5866L92.1039 21.5834L91.0843 26.6102L93.7623 26.5967L90.6135 42.952Z" fill="white"/>
<path fill-rule="evenodd" clip-rule="evenodd" d="M31.0845 27.212C32.2169 24.7988 33.0188 21.2885 33.2906 19.0845C33.5561 16.9294 32.9307 16.0731 30.6303 15.6822C30.0102 15.5769 29.383 15.6589 28.8311 16.0762C27.9923 16.7135 28.0676 17.837 27.7729 19.6794C27.1563 23.5364 25.9819 27.6267 27.6516 28.9592C29.4057 30.359 30.4277 28.6112 31.0845 27.212Z" fill="white"/>
<path fill-rule="evenodd" clip-rule="evenodd" d="M35.8211 29.4896C37.6791 26.5124 39.9737 21.283 38.789 19.5343C37.8492 18.1474 35.1856 17.4175 34.3914 19.6334C33.7651 21.3817 33.1774 24.0545 32.7139 25.5822C32.2193 27.2126 31.4015 29.4031 32.0843 30.5442C33.2914 32.5619 35.0594 30.7106 35.8211 29.4896Z" fill="white"/>
<path fill-rule="evenodd" clip-rule="evenodd" d="M104.767 18.5795L109.041 18.5639L112.12 9.93735L106.587 9.9082L104.767 18.5795Z" fill="white"/>
</g>
<defs>
<clipPath id="clip0">
<rect width="205" height="44" fill="white"/>
</clipPath>
</defs>
</svg>
