<svg width="490" height="503" viewBox="0 0 490 503" fill="none" xmlns="http://www.w3.org/2000/svg">
<g opacity="0.7" filter="url(#filter0_d)">
<path d="M390 211.5C390 306.217 313.217 383 218.5 383C123.783 383 47 306.217 47 211.5C47 116.783 123.783 40 218.5 40C313.217 40 390 116.783 390 211.5ZM136.774 211.5C136.774 256.636 173.364 293.226 218.5 293.226C263.636 293.226 300.226 256.636 300.226 211.5C300.226 166.364 263.636 129.774 218.5 129.774C173.364 129.774 136.774 166.364 136.774 211.5Z" fill="url(#paint0_linear)"/>
</g>
<defs>
<filter id="filter0_d" x="-13" y="0" width="503" height="503" filterUnits="userSpaceOnUse" color-interpolation-filters="sRGB">
<feFlood flood-opacity="0" result="BackgroundImageFix"/>
<feColorMatrix in="SourceAlpha" type="matrix" values="0 0 0 0 0 0 0 0 0 0 0 0 0 0 0 0 0 0 127 0"/>
<feOffset dx="20" dy="40"/>
<feGaussianBlur stdDeviation="40"/>
<feColorMatrix type="matrix" values="0 0 0 0 0.592157 0 0 0 0 0.317647 0 0 0 0 0.572549 0 0 0 0.4 0"/>
<feBlend mode="normal" in2="BackgroundImageFix" result="effect1_dropShadow"/>
<feBlend mode="normal" in="SourceGraphic" in2="effect1_dropShadow" result="shape"/>
</filter>
<linearGradient id="paint0_linear" x1="118.566" y1="354.632" x2="351.961" y2="90.2895" gradientUnits="userSpaceOnUse">
<stop offset="0.286458" stop-color="#7B4AAE"/>
<stop offset="1" stop-color="#7B4AAE" stop-opacity="0.2"/>
</linearGradient>
</defs>
</svg>
