<svg width="288" height="288" viewBox="0 0 288 288" fill="none" xmlns="http://www.w3.org/2000/svg">
<g filter="url(#filter0_d)">
<path d="M218 114C218 154.869 184.869 188 144 188C103.131 188 70 154.869 70 114C70 73.1309 103.131 40 144 40C184.869 40 218 73.1309 218 114ZM113.619 114C113.619 130.779 127.221 144.381 144 144.381C160.779 144.381 174.381 130.779 174.381 114C174.381 97.2211 160.779 83.6191 144 83.6191C127.221 83.6191 113.619 97.2211 113.619 114Z" fill="url(#paint0_linear)"/>
</g>
<defs>
<filter id="filter0_d" x="0" y="0" width="288" height="288" filterUnits="userSpaceOnUse" color-interpolation-filters="sRGB">
<feFlood flood-opacity="0" result="BackgroundImageFix"/>
<feColorMatrix in="SourceAlpha" type="matrix" values="0 0 0 0 0 0 0 0 0 0 0 0 0 0 0 0 0 0 127 0"/>
<feOffset dy="30"/>
<feGaussianBlur stdDeviation="35"/>
<feColorMatrix type="matrix" values="0 0 0 0 0.984314 0 0 0 0 0.862745 0 0 0 0 0.286275 0 0 0 0.5 0"/>
<feBlend mode="normal" in2="BackgroundImageFix" result="effect1_dropShadow"/>
<feBlend mode="normal" in="SourceGraphic" in2="effect1_dropShadow" result="shape"/>
</filter>
<linearGradient id="paint0_linear" x1="110.342" y1="172.245" x2="187.684" y2="84.1613" gradientUnits="userSpaceOnUse">
<stop stop-color="#FBDC49"/>
<stop offset="1" stop-color="#FBDC49" stop-opacity="0.6"/>
</linearGradient>
</defs>
</svg>
