<svg width="482" height="482" viewBox="0 0 482 482" fill="none" xmlns="http://www.w3.org/2000/svg">
<g filter="url(#filter0_d)">
<path d="M387 201C387 289.918 314.918 362 226 362C137.082 362 65 289.918 65 201C65 112.082 137.082 40 226 40C314.918 40 387 112.082 387 201ZM165.625 201C165.625 234.344 192.656 261.375 226 261.375C259.344 261.375 286.375 234.344 286.375 201C286.375 167.656 259.344 140.625 226 140.625C192.656 140.625 165.625 167.656 165.625 201Z" fill="url(#paint0_linear)"/>
</g>
<defs>
<filter id="filter0_d" x="0" y="0" width="482" height="482" filterUnits="userSpaceOnUse" color-interpolation-filters="sRGB">
<feFlood flood-opacity="0" result="BackgroundImageFix"/>
<feColorMatrix in="SourceAlpha" type="matrix" values="0 0 0 0 0 0 0 0 0 0 0 0 0 0 0 0 0 0 127 0"/>
<feOffset dx="15" dy="40"/>
<feGaussianBlur stdDeviation="40"/>
<feColorMatrix type="matrix" values="0 0 0 0 0.290196 0 0 0 0 0.337255 0 0 0 0 0.631373 0 0 0 0.25 0"/>
<feBlend mode="normal" in2="BackgroundImageFix" result="effect1_dropShadow"/>
<feBlend mode="normal" in="SourceGraphic" in2="effect1_dropShadow" result="shape"/>
</filter>
<linearGradient id="paint0_linear" x1="108" y1="345" x2="331" y2="101.5" gradientUnits="userSpaceOnUse">
<stop stop-color="#4A56A1"/>
<stop offset="1" stop-color="#4A56A1" stop-opacity="0.75"/>
</linearGradient>
</defs>
</svg>
